#!OML:ASF H:\Punching\Project 1\Capture day 1\Session 1\female.ASF
:FULLY-SPECIFIED
:DEGREES
1173
root -2.81333 15.8221 1.00818 11.042 -4.46494 -0.523741
lowerback -7.47247 -2.0868 1.99705
upperback -6.59626 -2.86424 2.05825
thorax -2.63392 -1.47362 0.863768
lowerneck -13.0942 5.03765 10.2824
upperneck 42.3383 6.93411 -5.89044
head 18.982 3.63503 -3.35789
rclavicle -4.09993e-014 2.38542e-015
rhumerus -42.9777 -19.0384 -62.7388
rradius 23.3362
rwrist 15.152
rhand -12.6369 -2.70271
rfingers 7.12502
rthumb 13.4432 -32.2489
lclavicle -4.09993e-014 2.38542e-015
lhumerus -42.0648 8.78894 79.2168
lradius 29.7547
lwrist -25.1952
lhand -4.31119 11.3655
lfingers 7.12502
lthumb 21.4551 40.1974
rfemur -28.7026 0.936415 23.431
rtibia 25.7312
rfoot -11.7869 -10.9278
rtoes 1.97185
lfemur 2.58828 -2.22831 -21.4898
ltibia 25.0981
lfoot -8.60176 6.40207
ltoes -16.4116
1174
root -2.85709 15.8346 1.09693 10.9859 -4.35922 -0.683995
lowerback -7.44373 -2.09471 2.2208
upperback -6.611 -2.88395 2.06815
thorax -2.67667 -1.49175 0.750311
lowerneck -13.0678 5.05964 10.2924
upperneck 42.3287 6.97298 -5.89556
head 18.975 3.65202 -3.35415
rclavicle -5.81445e-015 3.10104e-014
rhumerus -42.884 -18.9281 -62.8833
rradius 23.4027
rwrist 15.0131
rhand -12.5963 -2.73455
rfingers 7.12502
rthumb 13.4823 -32.2782
lclavicle -5.81445e-015 3.10104e-014
lhumerus -42.1581 8.92136 78.8381
lradius 29.7073
lwrist -25.2662
lhand -4.17999 11.4367
lfingers 7.12502
lthumb 21.5811 40.2542
rfemur -28.0024 0.612196 23.8557
rtibia 25.2874
rfoot -11.8566 -10.6614
rtoes 1.97686
lfemur 1.14324 -1.89379 -21.0192
ltibia 28.1533
lfoot -7.6182 6.07823
ltoes -15.659
1175
root -2.8999 15.8469 1.18346 10.9411 -4.24862 -0.866187
lowerback -7.40534 -2.09628 2.46787
upperback -6.61913 -2.89588 2.0819
thorax -2.7191 -1.50681 0.628536
lowerneck -13.0629 5.07898 10.2983
upperneck 42.3031 7.00738 -5.90365
head 18.9631 3.66557 -3.35108
rclavicle 2.3059e-014 -5.56597e-015
rhumerus -42.762 -18.7663 -63.07
rradius 23.5031
rwrist 14.7961
rhand -12.5664 -2.79418
rfingers 7.12502
rthumb 13.5111 -32.3359
lclavicle 2.3059e-014 -5.56597e-015
lhumerus -42.2249 9.00706 78.506
lradius 29.716
lwrist -25.2642
lhand -4.06762 11.5225
lfingers 7.12502
lthumb 21.689 40.3276
rfemur -27.2909 0.320654 24.2862
rtibia 24.7789
rfoot -11.8639 -10.429
rtoes 1.86581
lfemur -0.328123 -1.59139 -20.5415
ltibia 31.1658
lfoot -6.44386 5.84182
ltoes -14.5782
1176
root -2.94155 15.8591 1.26767 10.9075 -4.13866 -1.0722
lowerback -7.35176 -2.08851 2.74196
upperback -6.62374 -2.89582 2.09892
thorax -2.76768 -1.51692 0.496325
lowerneck -13.0758 5.09439 10.3041
upperneck 42.2611 7.03552 -5.91754
head 18.9452 3.67532 -3.35117
rclavicle 4.96962e-015 -7.95139e-015
rhumerus -42.6201 -18.5621 -63.2867
rradius 23.6326
rwrist 14.5145
rhand -12.5493 -2.88159
rfingers 7.12502
rthumb 13.5276 -32.4222
lclavicle 4.96962e-015 -7.95139e-015
lhumerus -42.2662 9.04286 78.223
lradius 29.7697
lwrist -25.199
lhand -3.99159 11.6128
lfingers 7.12502
lthumb 21.762 40.4094
rfemur -26.566 0.0616202 24.7258
rtibia 24.1998
rfoot -11.8326 -10.2223
rtoes 1.76264
lfemur -1.82744 -1.31857 -20.0572
ltibia 34.149
lfoot -5.11012 5.67687
ltoes -13.1632
1177
root -2.98187 15.8711 1.34979 10.8814 -4.03335 -1.29999
lowerback -7.28387 -2.07109 3.03926
upperback -6.62343 -2.88308 2.12056
thorax -2.82004 -1.52154 0.357097
lowerneck -13.1059 5.10735 10.3163
upperneck 42.2053 7.06129 -5.94503
head 18.9242 3.68292 -3.35876
rclavicle -3.72721e-015 -2.38542e-015
rhumerus -42.4563 -18.325 -63.521
rradius 23.7789
rwrist 14.1874
rhand -12.5512 -2.9679
rfingers 7.12502
rthumb 13.5258 -32.5086
lclavicle -3.72721e-015 -2.38542e-015
lhumerus -42.285 9.04046 77.9884
lradius 29.864
lwrist -25.0855
lhand -3.96329 11.6985
lfingers 7.12502
lthumb 21.7892 40.492
rfemur -25.8227 -0.176932 25.1754
rtibia 23.5482
rfoot -11.7703 -10.0256
rtoes 1.69128
lfemur -3.35003 -1.07005 -19.5696
ltibia 37.1038
lfoot -3.64985 5.5648
ltoes -11.4054
